<?xml version="1.0" encoding="utf-8"?>
<!-- Generator: Adobe Illustrator 24.0.1, SVG Export Plug-In . SVG Version: 6.00 Build 0)  -->
<svg version="1.1" id="Layer_1" xmlns="http://www.w3.org/2000/svg" xmlns:xlink="http://www.w3.org/1999/xlink" x="0px" y="0px"
	 viewBox="0 0 150 150" style="enable-background:new 0 0 150 150;" xml:space="preserve">
<style type="text/css">
	.st0{fill:#FF3300;}
	.st1{fill:#311D00;}
	.st2{fill:#FFFFFF;}
	.st3{fill:none;}
</style>
<g>
	<path class="st0" d="M67.8,82c1.8,2,4.6,4.7,6.6,6.7c-0.5-3-0.6-6,0-8.8c0.4-1.9,1.1-3.6,1.9-5l-1.7-3.9c-0.4,0.6-1.1,1.7-1.8,2.7
		C72.9,73.8,70.4,77.8,67.8,82z"/>
	<path class="st0" d="M76,95.3c-1.7-1-3.5-2.4-5.2-4.2c0,0-2.9-2.8-5.4-5.2c-1.3,2-2.1,3.4-2.6,4.2l5.5,3.6c1.2,0.8,2.5,1.7,2.6,3.5
		c0.1,1.8-1.5,3.9-2,4.6c-0.7,0.9-2.7,3.3-5.4,1.6c0,0-3.9-2.4-6.6-4l-2.1,3.1c2,0.3,12.9,2.1,21.8,3.5c-0.5-3.4-1.6-6.6-2.3-9.3
		c1.2,2.6,2.4,5.9,3.2,9.5c0.6,0.1,1.2,0.2,1.8,0.3c-0.2-0.9-0.4-1.7-0.5-2.5C78.5,102.3,77.2,99.1,76,95.3z"/>
	<path class="st0" d="M83.5,68.1c3.2-1.7,5.1-2.7,10.2-3.3c0,0,1.3-0.2,1.3-0.2c0.9-0.1,2.5-0.5,3-1.3c0.3-0.5,0.4-1.1,0.3-1.9
		c-5.4,1.1-11,2.5-15.9,4.5c-1.7,0.6-3,1.5-4.3,2.3c0.4,0.9,0.8,1.9,1.4,3c1.3-1.2,2.6-2.1,3.5-2.7C83.1,68.3,83.5,68.1,83.5,68.1z"
		/>
	<path class="st1" d="M54.8,124.8c-5.4-0.2-11.7-2.5-16.2-4.8c-2.2-1.3-7.4-4-9.5-4.1c2.4,0.5,7.4,3.4,9.2,4.6
		c3.9,2.1,10.4,5.1,16.5,5.3c14.6,0.9,22.8-7,23.2-15.3c-0.4-0.1-0.8-0.1-1.2-0.2C75.7,120.8,64.6,125.8,54.8,124.8z"/>
	<path class="st1" d="M76.7,105.8c0.3,0,0.6,0.1,0.9,0.1c-0.7-3.6-2-6.9-3.2-9.5C75.1,99.2,76.3,102.4,76.7,105.8z"/>
	<path class="st1" d="M43.8,91.1c-1.6,0-3,0.6-4.1,1.7c-2.4,2.4-2.2,6.6,0.4,9.3c1.3,1.4,3.1,2.2,4.9,2.2c0.6,0,1.3-0.1,1.9-0.3
		l3.9-5.8c0-1.7-0.7-3.5-2.1-4.9C47.3,91.9,45.6,91.1,43.8,91.1z"/>
	<path class="st1" d="M35.6,108.2c5.5,7,15.1,7.1,20,1.9C53.5,111.1,44.9,116.8,35.6,108.2z"/>
	<path class="st1" d="M62.2,113.8c0.3,0.7,0.9,1.1,1.7,1.1c0.5,0,1-0.2,1.4-0.6c1-0.4,1.8-1.5,1.8-2.7c0-1.6-1.3-2.9-2.9-2.9
		c-1.6,0-2.9,1.3-2.9,2.9C61.2,112.5,61.6,113.3,62.2,113.8z M63.9,114.6c-0.9,0-1.6-0.7-1.6-1.6c0-0.9,0.7-1.6,1.6-1.6
		c0.9,0,1.6,0.7,1.6,1.6C65.5,113.9,64.8,114.6,63.9,114.6z M65.1,111.4c-0.4-0.5-1.4-0.7-2-0.3c-0.3,0.2-0.5-0.1-0.2-0.4
		c0.7-0.6,1.9-0.5,2.5,0.3C65.7,111.4,65.4,111.7,65.1,111.4z M64.2,109.3c1.9,0,3.2,2.4,1.6,4c0.7-1.5,0.1-3.3-1.7-3.4
		c-1.9-0.1-2.5,1.8-2.2,2.8C61.3,112.1,61.6,109.3,64.2,109.3z"/>
	<path class="st2" d="M62.9,110.7c-0.3,0.3-0.1,0.6,0.2,0.4c0.6-0.4,1.6-0.2,2,0.3c0.2,0.3,0.5,0,0.2-0.4
		C64.8,110.2,63.6,110.1,62.9,110.7z"/>
	<path class="st2" d="M64.2,109.9c1.8,0.1,2.4,2,1.7,3.4c1.6-1.6,0.3-4.1-1.6-4c-2.6,0-2.9,2.8-2.2,3.4
		C61.7,111.7,62.3,109.8,64.2,109.9z"/>
	<path class="st2" d="M65.5,113c0-0.9-0.7-1.6-1.6-1.6c-0.9,0-1.6,0.7-1.6,1.6c0,0.9,0.7,1.6,1.6,1.6
		C64.8,114.6,65.5,113.9,65.5,113z M63.9,114.2c-0.7,0-1.3-0.6-1.3-1.3c0-0.7,0.6-1.3,1.3-1.3c0.7,0,1.3,0.6,1.3,1.3
		C65.1,113.7,64.6,114.2,63.9,114.2z"/>
	<path class="st1" d="M63.9,111.7c-0.7,0-1.3,0.6-1.3,1.3c0,0.7,0.6,1.3,1.3,1.3c0.7,0,1.3-0.6,1.3-1.3
		C65.1,112.3,64.6,111.7,63.9,111.7z M62.9,113c0-0.2,0.1-0.1,0.1,0c0.3,0.5,1.3,0.6,1.6,0.2c0.1-0.2,0.1,0.1,0.1,0.1
		C64.2,114.5,62.8,113.7,62.9,113z"/>
	<path class="st2" d="M64.7,113.2c-0.3,0.4-1.2,0.4-1.6-0.2c0-0.1-0.1-0.2-0.1,0c-0.1,0.7,1.3,1.5,1.9,0.3
		C64.8,113.3,64.8,113,64.7,113.2z"/>
	<path class="st1" d="M37.7,112.9c-0.7,0.5-1,1.5-0.9,2.6c-0.3,0.6-0.1,1.6,0.5,2.3c0.7,0.8,1.7,1,2.4,0.6c0.6,0,1.2-0.1,1.6-0.4
		c1-0.9,1.1-2.6,0.1-3.9C40.5,112.6,38.8,112.2,37.7,112.9z M37.5,117.6c-0.7-0.7-0.8-1.7-0.3-2.2c0.5-0.5,1.5-0.3,2.2,0.4
		c0.7,0.7,0.8,1.7,0.3,2.2C39.2,118.4,38.2,118.3,37.5,117.6z M40.1,115.8c-0.2-0.4-0.8-0.9-1.2-1c-0.4-0.1-0.2-0.6,0.2-0.5
		c0.4,0.1,1,0.7,1.1,0.9C40.7,115.9,40.3,116.2,40.1,115.8z M40.6,117.8c1.9-2.5-1.8-5.5-3.3-3.1C38.5,110.9,43.5,115.7,40.6,117.8z
		"/>
	<path class="st2" d="M39.2,114.3c-0.4-0.1-0.6,0.4-0.2,0.5c0.3,0.1,1,0.6,1.2,1c0.2,0.4,0.6,0,0.2-0.6
		C40.2,115,39.6,114.5,39.2,114.3z"/>
	<path class="st2" d="M37.3,114.7c1.5-2.3,5.3,0.6,3.3,3.1C43.5,115.7,38.5,110.9,37.3,114.7z"/>
	<path class="st2" d="M39.5,115.7c-0.7-0.7-1.7-0.9-2.2-0.4c-0.5,0.5-0.4,1.5,0.3,2.2c0.7,0.7,1.7,0.9,2.2,0.4
		C40.2,117.4,40.1,116.4,39.5,115.7z M39.4,117.8c-0.4,0.3-1.2,0.1-1.7-0.4c-0.6-0.5-0.6-1.4-0.2-1.8c0.5-0.4,1.3-0.2,1.8,0.4
		C39.6,116.4,39.9,117.4,39.4,117.8z"/>
	<path class="st1" d="M37.5,115.6c-0.4,0.4-0.4,1.2,0.2,1.8c0.5,0.5,1.3,0.8,1.7,0.4c0.5-0.4,0.2-1.4-0.2-1.8
		C38.7,115.4,37.9,115.1,37.5,115.6z M39.1,117.6c-0.9,0.1-1.7-1-1.4-1.5c0,0,0.2-0.3,0.3,0c0.1,0.5,0.7,1.1,1.2,1.3
		C39.3,117.3,39.3,117.5,39.1,117.6z"/>
	<path class="st2" d="M38,116c0-0.3-0.3,0-0.3,0c-0.3,0.5,0.5,1.6,1.4,1.5c0.3,0,0.2-0.2,0.1-0.3C38.6,117.1,38,116.6,38,116z"/>
	<path class="st2" d="M33.4,120.7c0.2-0.1,0.4-0.3,0.5-0.4c-2.5-1.6-5.6-2.6-10.6-1c-0.1,0-0.1,0-0.2,0.1c1.2-0.2,2.9-0.5,3.9-0.4
		c1.3,0.1,3.3,0.3,5.1,1.5l-0.9,0.5c-4.4,2.1-8.1,2.7-10.1,2.9c-2,0.1-1.7-1.1-0.3-1.7c0.7-0.4,1.4-1.1,1.6-2.4
		c-0.2,0.1-0.2,0.1-0.6,0.1c0,0,0,0,0,0c-0.4,3.2-6.7,2.9-6.1-1.5c0,0-0.9-1.9-1.4-2.9c0,0-0.1-0.7-0.1-0.7c0,0,1.5,2.5,2.2,3.3
		c-0.9,3,3.5,4.2,4.7,2c-3.9,0.7-4-1.3-3.9-1.9c0-0.1-0.1-0.2-0.1-0.3c-0.7-0.7-2.9-3.6-5.3-8.1c-0.3,2.7,2.7,8.8,2.9,9.4
		c0.3,0.6,0.3,0.6,0.3,0.6c-0.9,2.5,1.7,5.8,6.4,5.1C26,124.2,31.2,122.3,33.4,120.7z"/>
	<path class="st1" d="M99,112.6c0,0-0.3,0-0.8,0.1l0.3,0.6c0.2,0.4,0.4,0.7,0.6,1.1c0.5-0.6,1-1.3,1.4-2
		C100.1,112.4,99.5,112.5,99,112.6z"/>
	<path class="st1" d="M101.3,97.5c0.4,3.5,0.3,7.1-0.7,10.3c0.7-0.1,1.3-0.1,2-0.2c0.4-1.6,0.7-3.2,0.8-4.9c0-0.2,0-0.3,0-0.5
		l15,2.5c0,0-1-2.2-1.2-3l-13.8-2.4c0-0.1,0-0.3,0-0.4c0-0.6-0.1-1.1-0.2-1.7C102.6,97.3,101.9,97.4,101.3,97.5z"/>
	<path class="st1" d="M76,95.3c1.2,3.9,2.5,7,2.8,8.5c0.2,0.7,0.4,1.5,0.5,2.5c0.8,0.1,1.6,0.2,2.3,0.4c0-0.1,0-0.3,0-0.4
		c2.5-1.8,4.5-4.8,5.5-7.6L87,98.2c-0.1,0-0.2,0-0.4,0c-2.6-0.1-5.5-0.5-8.5-1.8c0.7,2.8,1.5,5.6,1.9,8.1c-0.5-2.2-1.7-5.2-2.8-8.6
		C76.9,95.7,76.4,95.5,76,95.3z"/>
	<path class="st1" d="M74.5,88.7c0.3,0.3,0.6,0.6,0.9,0.8c0.1,0.1,0.2,0.1,0.2,0.2c-0.9-4.6-0.9-9.4,1.4-13.7l-0.5-1.1
		c-0.8,1.4-1.5,3.1-1.9,5C73.9,82.7,74,85.7,74.5,88.7z"/>
	<path class="st2" d="M99.7,85.3c-0.9-4.2,0.1-12.1,3.1-14.3C98.5,71.5,97.2,82.5,99.7,85.3z"/>
	<path class="st1" d="M85,93.7L77.4,77c-1.7,4.4-1.5,9-0.6,13.6C79.2,92.3,81.5,93.3,85,93.7z"/>
	<path class="st2" d="M147,118.8c-0.7-9.1-2.7-18.1-6.1-27.7l-0.4-1c-0.9-2.3-2.4-2.7-4.9-2.4l-2.2,0.2c-4.4,0.4-11.4,1.1-17.3,0.1
		l-8-18.9c-0.1,0-0.1,0-0.2,0c-0.2,0-0.3,0-0.5,0c2.2,5.1,9.3,22,9.3,22c-1.4,0.2-2.9,0.3-2.9,0.3l-9-21.1c-0.2,0.2-0.4,0.4-0.5,0.5
		c0,0.1-0.1,0.1-0.1,0.1s3,7.2,6.4,15.2c-0.4-0.2-0.7-0.4-1-0.6c-1.6-1-5.2-3.6-8.3-8.2c0,0,0,0.1,0,0.2c0,0.2-0.1,0.4-0.1,0.7
		c4.2,6.5,10,9,10,9l1.4,3.5c-5.7-1.6-10.4-6.8-11.8-8.3c0,0.1,0,0.3,0,0.4c0,0.1,0,0.2,0,0.4c3.2,4.1,7.4,7,11.9,8.5
		c-3.3,0.4-7,0.9-10.4,1.2c-0.7,0.1-1.3,0.1-1.9,0.2c-0.4-1.7-1-3.3-1.6-4.8c-3.2-7.6-12-4.1-11.4,0.5C84.8,83,82.1,77,80.1,72.5
		c0.8-0.9,2.4-2.5,4.9-4.1c-1.8,0.8-3.2,2-3.2,2c-0.7,0.5-1.3,1.1-1.9,1.7c-0.2-0.3-0.3-0.7-0.4-1c-0.5-1.1-1-2.2-1.4-3
		c1.3-0.8,2.6-1.7,4.3-2.3c4.9-2,10.5-3.3,15.9-4.5c0.3-0.1,0.6-0.1,0.9-0.2c0.2,2.7-1.2,3.7-3.5,4.2c-1.5,0.3-2.8,0.4-3.4,0.6
		l1.5,0.1c0.1,0,1.7,0,3.9-0.8c1.5-0.5,2.6-1.5,2.1-4.2c0.2-0.1,0.5-0.1,0.7-0.2c0.4,2.5,0,4.9-4.8,5.4c0.8,0.6,8.4-0.8,13,0.2
		c0.1,0.1,2,0.7-0.2,1.7c4.2-0.9,4.5-5.2,3.7-8.3l0.2,0c0.8,0.1,1.5,0.2,2,0.3c0,0,0,0,0,0c0.4,0,0.9,0.1,1.4,0.2
		c3.2,0.3,2.9-3.4,1.2-3.9c-1.3-0.4-1.6-0.4-1.9-0.4l-0.4-0.1l-3.9-8.8l2.2-1l5.6,10.1c2.6,4.1-1.7,5.9-4.1,4.6
		c-0.3,0.2-0.5,0.3-0.7,0.5c0.7,0.5,1.5,0.7,2.4,0.7c1.6,0,3-0.7,3.6-1.9c0.5-0.8,0.8-2.3-0.5-4.3l-6-10.8l-4.8,2.1
		c0.4,0.1,0.6,0.2,0.8,0.5l0.8-0.3l3.7,8.3c-0.5-0.1-1.7-0.2-2-0.2c0,0-0.9,0-0.9,0c-0.8-2.5-1.9-5.6-2.6-7.5
		c-0.4-0.1-1.1-0.1-1.3-0.1c0,0,0,0,0,0.1c0.6,1,2.3,6.3,2.8,7.8c0.8,2,0.7,3.1,0.7,3.1l-3.7-0.1c-0.1-1.1-1.1-3.1-1.1-3.1l-1.4-2.8
		l-0.4-0.8l-1.4-3l0,0c-0.2-0.3-0.4-1-0.5-1.6c-0.2-1.9,1.7-1.9,1.7-1.9c1,0,1.8,0.4,2.6,1.5c0.2,0,0.4,0,0.5,0
		c-1.1-2.3-1.8-3-2.5-4.2C90,22.6,66.3,16.6,45.5,21.7c26.4-3.9,46.6,7.5,56.7,24.5c-0.8,0.4-2.2,1.1-2.9,1.5c-0.3,0-1.4,0-1.7,0
		c-0.6,0.1-1.2,0.1-0.8,1.6c0.3,1.1,0.4,1.4,0.7,2.1c0.3,0.8,1.3,3.3,2,5.4c-0.2,0-0.5,0.1-0.7,0.1c-0.1-0.4-0.3-0.8-0.4-1.2
		c-0.8-2.1-1.8-4.8-2.1-5.7c-0.1-0.5-0.4-1.4-0.1-2.2c0,0-1,0.8-0.1,2.9l2.3,6.3c-0.3,0.1-0.6,0.1-0.9,0.2
		c-6.9,1.4-13.6,3.2-17.3,4.8c0,0-2.8,1-4.8,2.7C75,64.6,75,64.7,75,64.7c-0.6,0.2-1.1,0.6-1.5,1.1c-0.3,0.2-0.9,0.7-1.2,1.1
		c-0.8,0.9-1.5,1.7-2.4,2.9c-0.8,1.2-3.6,5.5-6,9.6c-0.2,0.1-0.4,0.2-0.6,0.3c-0.7,0.5-1.1,1.4-0.9,2.3c-2,3.3-3.2,5.1-3.7,5.9
		c-1.1,0.1-1.7,1-1.7,1.1c-0.5,1-2.6,4.4-3,4.8C53.7,94,53.2,95,53.5,96l-0.2,0.4c0,0-4.6,6.9-4.6,6.9c-0.4,0.6-0.5,1.2-0.2,1.8
		c0.4,0.8,1.3,1.4,2.3,1.5c0.5,0,1-0.1,1.4-0.4c1.9,0.3,14.9,2.5,24.7,4.1c0.4,0.1,0.8,0.1,1.2,0.2c0.7,0.1,1.3,0.2,1.9,0.3
		c0.5,0.1,1.1,0.2,1.6,0.3c-0.2,2.8-0.9,5.3-2,7.5l0.4,0.1c6.8,0.6,11.7-0.7,15-2.9c0.3,0.5,0.6,1.1,0.9,1.6
		c3.3,5.2,8.3,8.7,14.8,10.4c6.7,1.8,14.3,1.6,21.6-0.6c0.9,0.4,1.7,0.2,2.3-0.1c0.2-0.1,0.3-0.2,0.4-0.3c7.9-1.8,9.3-2.5,9.8-2.9
		c0.1,0,0.1-0.1,0.2-0.1C147.1,122.4,147,118.9,147,118.8z M135.6,116.9c-0.3-3.2-0.9-6.6-1.6-9.8c1.8-0.3,5.2-1.2,6.4-1.5l0.1,0.5
		c0.6,3.4,1.6,8.6,2,11.8c0,0.3,0,0.6-0.1,0.8c-0.6-0.1-1.1-0.2-1.2-0.2C139.3,118.3,137.4,117.7,135.6,116.9z M135.9,92
		C135.9,92,135.9,92,135.9,92l0.2,0c0.6,1.4,1.6,4.5,1.9,5.6l0.6,2.4c-1.9,0.4-4,0.8-6.1,1c-0.8-2.8-1.8-5.4-2.7-7.7
		C134.4,92.7,135.9,92,135.9,92z M140.8,104.7c0,0-1.2,0.6-6.8,1.6c0,0-0.5-1.7-0.7-2.6c0,0,4.7-1,6.5-1.7c0,0,0-0.6-0.9-0.6
		c0,0-4.8,1.2-5.9,1.3l-0.3-0.7c0,0,4.1-0.8,5.5-1.1c0,0,2.9-1,3.5,1.2C141.8,102.1,142.4,104,140.8,104.7z M140.1,91.6
		c3.7,10.4,6.6,24.6,5.7,29.5c0-0.6-1-1.8-2.7-2.2c0,0,0-0.6,0-1.4c-0.4-4.3-2-12.1-2-12.1c2.4-0.8,2.2-5.6-1.9-5.6
		c-1-4.4-2.4-7.9-2.4-7.9c2.2-1.2,1.2-3.2,0-3.6C136.9,88.3,139.1,87.8,140.1,91.6z M136,88.7c0.8,0.1,1.1,0.6,1.2,1.2
		c0,0.2-0.1,1.1-1,1.3l-0.3,0.1c-0.9,0.3-2.6,0.7-4.3,1c-1.1,0.2-2.1,0.4-2,0.3c-0.2-0.5-0.4-1-1-2.3c1.9-0.3,4.3-0.8,6-1.3
		C135,88.8,136,88.7,136,88.7z M132.3,88.7c-0.8,0.3-4.5,0.8-4.5,0.8c-0.5-0.4-1-0.5-1.1-0.5c0,0,0,0,0,0c0,0,0,0,0,0
		C128.1,89.1,132.3,88.7,132.3,88.7z M124.6,89.3c-0.8,0.1-0.8,0.8-0.8,0.8c-1.9,0.5-6.3,0.9-6.3,0.9l-0.9-2.1
		C121.1,89.6,124.6,89.3,124.6,89.3z M116.4,57.1L116.4,57.1L116.4,57.1c0.6,0.1,0.9,0.8,0.9,1.4c0,0.3-0.2,1-1.3,1
		c-1-0.2-3.6-0.5-4.9-0.6c0-1.1-0.7-2.7-0.7-2.7C111.9,56.4,115.7,56.8,116.4,57.1z M106.6,60.1c0,0,2.2,0,3.3,0
		c0,0-0.8,1.6-4.3,1.3C105.6,61.5,106.5,60.8,106.6,60.1z M100.5,47.6l0.9-0.5c0,0,0.1-0.1,0.1,0c-0.1,0.1,0,0.4,0,0.4
		c0,0.3,0,0.5,0.3,1.5c0.6,1.5,3.5,7.5,3.8,8.4c1.7,4.4-2.7,5.2-3.1,3.2c4.6-0.4,2.7-5.2,0.1-4.5c-1-2.5-1.8-4.9-1.8-4.9
		S99.8,48.4,100.5,47.6z M100.1,51.2l1.8,5l-0.9,0.2c0,0-1.2-3.2-1.9-5.5c-0.6-1.7-0.2-2.5-0.2-2.5l0.9-0.4
		C99.4,49.2,100.1,51.2,100.1,51.2z M80.1,62.7c4.7-2,14.3-4.4,22.7-5.8c0.9-0.1,1.6,0.5,1.7,1.1c0.1,0.6-0.2,1.2-1.3,1.4l-0.5,0.1
		C96,60.9,88.4,62.4,82.1,65c-2,0.7-3.1,1.3-4.2,2.2c0,0-0.6-1.3-0.8-1.7c-0.4-0.6-0.4-0.7-0.7-0.9C77.3,64,78.5,63.4,80.1,62.7z
		 M74.1,66.4c0.4-0.6,1.1-0.9,1.5-0.9c0.3,0,0.6,0.1,0.7,0.1l12.8,28.4c0,0-1.8,0.1-3.2-0.2c-5.5-11.9-11.8-25.9-11.9-25.9
		C73.8,67.3,73.8,66.8,74.1,66.4z M76.5,74.9L77,76c-2.3,4.3-2.3,9.1-1.4,13.7c-0.1-0.1-0.1-0.1-0.2-0.2c-0.3-0.3-0.6-0.5-0.9-0.8
		c-2.1-2-4.8-4.8-6.6-6.7c2.6-4.2,5.1-8.2,5.1-8.2c0.7-1.1,1.4-2.1,1.8-2.7L76.5,74.9z M77.4,77L85,93.7c-3.5-0.4-5.8-1.4-8.2-3.1
		C75.9,86,75.7,81.4,77.4,77z M70.6,70.2c0.8-1.4,2.8-3.7,2.5-3.4c0,0-0.1,0.7,0.3,1.4c0.3,0.6,0.9,2.1,0.9,2.1
		c0.1-0.1-1.3,1.7-2.2,3l-4.9,8L66,79.9c0,0-0.6-0.7-1.1-0.7C67.5,75.1,69.8,71.4,70.6,70.2z M78.2,96.3c2.9,1.3,5.8,1.7,8.5,1.8
		c0.1,0,0.2,0,0.4,0l0.2,0.4c-1,2.8-3,5.8-5.5,7.6c0,0.1,0,0.3,0,0.4c-0.7-0.1-1.5-0.2-2.3-0.4c-0.6-0.1-1.2-0.2-1.8-0.3
		c-0.3,0-0.6-0.1-0.9-0.1c-8.9-1.4-19.8-3.2-21.8-3.5l2.1-3.1c2.7,1.6,6.6,4,6.6,4c2.7,1.7,4.7-0.7,5.4-1.6c0.5-0.7,2.1-2.8,2-4.6
		c-0.1-1.7-1.4-2.7-2.6-3.5L62.9,90c0.5-0.8,1.3-2.2,2.6-4.2c2.5,2.5,5.4,5.2,5.4,5.2c1.7,1.8,3.4,3.2,5.2,4.2
		c0.4,0.2,0.8,0.5,1.2,0.7c1.1,3.4,2.3,6.4,2.8,8.6C79.7,101.9,78.9,99.2,78.2,96.3z M122.4,104.8c-0.5,0.2-2.8,0.5-2.8,0.5
		c-0.6-1-4-9.6-4-9.6c0.4-0.1,2.8-0.4,2.8-0.4C120.1,100.3,122.4,104.8,122.4,104.8z M123.1,104.6l-1.1-2.4c3.5,0.1,6.1,0,6.1,0
		c0.4,1.6-1,1.6-1,1.6L123.1,104.6z M121.8,101.5l-2.7-6.3c1.8-0.3,3.5-0.6,4.9-0.8l0,0l0,0c0.4-0.1,0.7-0.1,0.9,0
		c0.4,0.2,0.5,0.7,0.5,0.7l0,0l0,0c0.6,1.5,1.7,4.7,2.2,6.4C125.5,101.5,123.4,101.5,121.8,101.5z M116.9,101.1l-13.6-2.4
		c0,0.1,0,0.2,0,0.2c0,0.1,0,0.3,0,0.4l13.8,2.4c0.3,0.8,1.2,3,1.2,3l-15-2.5c0,0.2,0,0.3,0,0.5c0,0.1,0,0.1,0,0.2l14.8,2.5
		c-4.9,0.8-10.1,1.6-15.6,2.2c-0.7,0.1-1.3,0.1-2,0.2c1-3.2,1.1-6.9,0.7-10.3c0.6-0.1,1.3-0.1,1.9-0.2c3.8-0.4,7.8-0.9,11.5-1.5
		C115.5,97.7,116.2,99.5,116.9,101.1z M95.5,108.2c0,0-1.2,0.2-3.2,0.1c-0.9-1.8-2-4.2-4.7-10.1c1.8,0.2,3.2,0,3.2,0L95.5,108.2z
		 M68.1,95.2c-1.2-0.8-5.9-4-5.9-4l0.5-0.5c2.1,1.4,4.9,3.2,6.1,4.1c2.2,1.6,1,3.6,1,3.6C70,97.4,69.5,96.2,68.1,95.2z M59.1,88.8
		L59.1,88.8L59.1,88.8c0.1-0.1,0.8-1.4,3.6-5.9c0.8,1.2,2.2,2.4,2.2,2.4l-3.4,5.4c-0.5,0.4-1.4,0-2-0.6C59.3,90,58.7,89.3,59.1,88.8
		z M58,89.1c-0.1,1.6,2.4,2.9,3.5,2.6l6.2,4.1c0.9,0.7,1.8,1.8,1.3,3.4c-0.1-1.4-1.9-2.6-1.9-2.6s-6.6-3.9-8.7-5.2
		C57.3,90.6,57.4,89.6,58,89.1z M54.9,94c1.2-1.7,1.8-2.7,2.1-3.2c0.3,0.6,1.1,1.1,1.1,1.1c2.1,1.3,6.4,3.9,7.6,4.6
		c1.3,0.7,1.6,1.1,1.6,1.1c1.6,1.5,1.3,2.9,0.5,4c-0.9,1.2-2.5,1.9-3.9,1l-1.9-1.2l0,0l-0.7-0.4l-5.8-3.6l0,0l0,0c0,0-1-0.4-1.2-1.3
		C54.2,95.5,54.4,94.8,54.9,94z M50.9,105.7c-0.7,0-1.4-0.5-1.6-1c-0.2-0.3-0.1-0.6,0.1-1l4.4-6.7c0.3,0.5,2.5,1.9,2.5,1.9
		c-0.9,1.4-4.2,6.3-4.3,6.3C51.7,105.6,51.2,105.7,50.9,105.7z M132.2,126.2c0,0,0,0.1-1.1,0.5c-6.8,1.7-14.1,1.9-20.2,0.2
		c-5.6-1.5-12.2-4.7-15.8-12.8c0,0-0.5-0.9-0.6-1.3c0,0,1.9,0,3.1-0.1c5.7,12.2,20.3,14.4,32.9,11.2c0,0,1.1-0.2,1.5-0.5
		c0.3-0.6,0.2-2.2,0.2-2.2c0-0.4-0.3-7.8-1.7-12.8c-0.1-0.5-0.3-0.8-0.4-1c0,0-0.4-0.2-0.6-0.2c-0.7,0-1.6,0.2-1.6,0.2
		c-7.7,1.8-19.7,3.4-29.2,4.3c0,0-0.7,0.1-2,0.2l-1,0c-1.8,0-4.3-0.1-7.5-0.6c0,0-35.2-5.7-35.1-5.7l1.9-2.6c0,0,33.9,5.6,33.9,5.6
		c5.2,0.8,7.6,0.4,7.6,0.4c9.1-0.5,26-3,30.1-4.1c0,0,2.2-0.5,2.5-0.8c0.2-0.2-0.3-1.8-0.3-1.8c0-0.1-1.7-5.5-2.5-7.6l0,0
		c0-0.1-0.4-1.2-0.8-1.4l-0.3,0c0,0-0.5,0.1-1.1,0.2c-8,1.4-22.5,3.5-31.1,4c0.7,0-3.5,0.1-6.7-0.1c-4.6-0.3-9.8-1.4-14.9-7
		c-0.1-0.1-5.7-5.5-8-8c-0.6-0.8-0.3-1.7,0.3-2.2c0.4-0.3,1.3-0.5,1.7,0.1c1,1.3,6.7,7.3,9.6,9.9c3.1,2.5,5.4,3.7,9.8,4.2
		c2.4,0.3,5.2,0.2,5.3,0.2c5.8,0.1,26.9-2.4,33.1-3.7c0.8-0.1,1.3-0.3,1.3-0.3l0-0.1l0-0.3c0-0.1,0.4-0.4,0.7-0.5
		c0.6-0.3,1.3-0.3,2,0.3c4.4,8.1,8.8,23.3,7.8,34.7c-0.1,0.6-0.3,1.1-0.8,1.3C134.2,126.3,133.2,126.7,132.2,126.2z M121.5,109.6
		c0.6-0.1,3-0.6,3-0.6c2.5,3.8,6.6,6.5,6.6,6.5c0.1,0.9,0.2,3.4,0.2,3.4C124.9,115.8,121.5,109.6,121.5,109.6z M125.4,108.8
		c1.3-0.3,2.5-0.5,3.6-0.8c0.3-0.1,0.4,0,0.4,0c0.2,0.1,0.3,0.5,0.3,0.6l0,0l0,0c0.4,1.5,0.7,3.5,1,5.4
		C128.7,112.6,126.8,110.8,125.4,108.8z M131.3,119.9c0.1,1.1,0.1,1.8,0.1,1.8c0,0.9-0.5,1.2-0.6,1.3c-11.6,3.1-25.4,1.5-31.6-8.6
		c-0.2-0.4-0.4-0.7-0.6-1.1l-0.3-0.6c0.5-0.1,0.8-0.1,0.8-0.1c0.5-0.1,1-0.1,1.6-0.2c6.2-0.7,13.6-1.6,20.1-2.8
		C123.5,114.7,127.4,118,131.3,119.9z M135.8,125.8c0.3-1.2,0.2-3,0.2-3c9.3-2,0.5-2.8,0.5-2.8c2.1,0.6,2,1.4,2,1.4
		c-0.9,0.1-2.5-0.4-2.5-0.4c0.1-0.6-0.1-2.9-0.1-2.9c2.4,1.1,2.8,0.8,5.3,1.3c2.6,0.6,1.3,1.6,1.3,1.6c-1.3,1.6-6.1,2.3-6.1,2.3
		c8.1-1.1,7.4-3.3,7.4-3.3c3.3,2.2,0.1,3.7-1.6,4.2C140.6,124.5,135.8,125.8,135.8,125.8z"/>
	<path class="st2" d="M62.1,100c0,0,0.1,0.3,0.3,0.6l0,0c0.2,0.3,0.5,0.6,0.8,0.8c2.4,1.4,3.8-0.4,3.8-0.4c0,0,1.1-1.5-0.5-3.1
		c0,0-1-0.9-2.4-0.8c-0.1-0.6-0.8-2.1-2.9-2.1h0l0,0c-1.6,0.1-2,1-2.2,1.5c0,0-0.4,1.1,0.2,2.1C59.3,98.8,60.1,100.4,62.1,100z
		 M64.3,97.7c1.8-0.1,3.2,1.8,2.3,3.1l-0.3,0.1c-1.6,0.2-2.5-0.4-2.7-1.8C63.8,98.8,64.2,98.3,64.3,97.7z M62.2,95.8
		c0.9,0.3,1.6,1.1,1.5,1.9l0.1,0c-0.1,0.6-0.7,1.4-2,1.2c-0.1-0.3-0.1-0.5-0.1-0.8c0.2,0.1,0.4,0.1,0.7,0.1c0-0.1,0-0.4,0-0.4
		c-0.3,0-0.5-0.1-0.7-0.2C61.7,96.9,61.9,96.3,62.2,95.8z M60,96.1c0.4-0.3,0.7-0.5,1.3-0.5c-0.3,0.4-0.4,1-0.4,1.6
		c-0.1-0.1-0.2-0.1-0.3-0.2l0,0.4c0.1,0.1,0.2,0.2,0.4,0.3c0,0.4,0,0.7,0.1,0.9c-0.1,0-0.1-0.1-0.2-0.1C59.6,97.9,60,96.1,60,96.1z
		 M59.6,96.7c-0.2,2.6,2.2,3,3.5,2.5c0.3,2.1,2.1,2.2,3,2c-1.1,0.7-3.3,0.2-3.7-1.8C60.8,100,58.9,98.6,59.6,96.7z"/>
	<path class="st1" d="M104.9,50.1c-0.5-0.3-1.4-1.5-1.2-2.5C104.9,47.7,105.3,49.5,104.9,50.1z"/>
	<path class="st1" d="M106.2,53.5c-0.6-0.6-1-1.3-1-2.3C106.2,51.4,106.8,52.7,106.2,53.5z"/>
	<path class="st1" d="M100.8,51.1c0,0,0.8,2.5,1.8,4.9c2.6-0.7,4.5,4.2-0.1,4.5c0.5,1.9,4.8,1.1,3.1-3.2c-0.3-0.9-3.2-6.9-3.8-8.4
		c-0.4-1-0.4-1.1-0.3-1.5c0,0,0-0.3,0-0.4c0,0-0.1,0-0.1,0l-0.9,0.5C99.8,48.4,100.8,51.1,100.8,51.1z"/>
	<path class="st1" d="M98.9,48.4c0,0-0.4,0.8,0.2,2.5c0.7,2.2,1.9,5.5,1.9,5.5l0.9-0.2l-1.8-5c0,0-0.7-1.9-0.4-3.2L98.9,48.4z"/>
	<path class="st1" d="M109.9,60.1c-1.1,0-3.3,0-3.3,0c-0.1,0.7-1,1.3-1,1.3C109.1,61.7,109.9,60.1,109.9,60.1z"/>
	<path class="st1" d="M66,79.9l1.3,1.4l4.9-8c0.8-1.3,2.3-3.1,2.2-3c0,0-0.6-1.5-0.9-2.1c-0.4-0.7-0.3-1.4-0.3-1.4
		c0.3-0.3-1.7,2-2.5,3.4c-0.8,1.2-3.1,4.9-5.7,9C65.5,79.2,66,79.9,66,79.9z"/>
	<path class="st1" d="M132.3,88.7c0,0-4.2,0.4-5.6,0.3c0.1,0,0.6,0.1,1.1,0.5C127.8,89.5,131.5,89,132.3,88.7z"/>
	<path class="st1" d="M126.7,89C126.7,89,126.7,89,126.7,89C126.7,89,126.7,89,126.7,89z"/>
	<path class="st1" d="M128.1,102.2c0,0-2.5,0-6.1,0l1.1,2.4l4-0.8C127.1,103.8,128.5,103.8,128.1,102.2z"/>
	<path class="st1" d="M118.3,95.3c0,0-2.3,0.4-2.8,0.4c0,0,3.5,8.6,4,9.6c0,0,2.3-0.3,2.8-0.5C122.4,104.8,120.1,100.3,118.3,95.3z"
		/>
	<path class="st1" d="M124.5,109c0,0-2.4,0.5-3,0.6c0,0,3.4,6.1,9.7,9.3c0,0-0.1-2.4-0.2-3.4C131.1,115.5,127,112.8,124.5,109z"/>
	<path class="st1" d="M143.7,119.9c0,0,0.7,2.2-7.4,3.3c0,0,4.8-0.7,6.1-2.3c0,0,1.3-1.1-1.3-1.6c-2.5-0.6-2.9-0.3-5.3-1.3
		c0,0,0.2,2.4,0.1,2.9c0,0,1.6,0.5,2.5,0.4c0,0,0.1-0.7-2-1.4c0,0,8.8,0.8-0.5,2.8c0,0,0.1,1.8-0.2,3c0,0,4.8-1.3,6.3-1.7
		C143.8,123.6,147,122.1,143.7,119.9z"/>
	<path class="st1" d="M87.7,98.3c2.7,5.8,3.7,8.3,4.7,10.1c2,0.2,3.2-0.1,3.2-0.1l-4.6-10C90.9,98.3,89.5,98.5,87.7,98.3z"/>
	<path class="st1" d="M85.9,93.7c1.4,0.3,3.2,0.2,3.2,0.2L76.3,65.6c0,0-0.3-0.1-0.7-0.1c-0.5,0-1.2,0.3-1.5,0.9
		c-0.3,0.5-0.3,0.9,0,1.4C74.1,67.8,80.5,81.8,85.9,93.7z"/>
	<path class="st1" d="M135,124.9c1-11.4-3.4-26.6-7.8-34.7c-0.6-0.5-1.4-0.5-2-0.3c-0.3,0.1-0.7,0.4-0.7,0.5l0,0.3l0,0.1
		c0,0-0.5,0.2-1.3,0.3c-6.2,1.2-27.3,3.8-33.1,3.7c-0.1,0-2.9,0-5.3-0.2c-4.4-0.5-6.7-1.8-9.8-4.2c-2.8-2.7-8.6-8.6-9.6-9.9
		c-0.5-0.5-1.3-0.4-1.7-0.1c-0.6,0.5-0.9,1.4-0.3,2.2c2.3,2.5,8,7.9,8,8c5.1,5.6,10.3,6.7,14.9,7c3.3,0.2,7.5,0,6.7,0.1
		c8.6-0.5,23.1-2.5,31.1-4c0.6-0.1,1.1-0.2,1.1-0.2l0.3,0c0.4,0.2,0.7,1.3,0.8,1.4l0,0c0.8,2.1,2.5,7.5,2.5,7.6c0,0,0.5,1.7,0.3,1.8
		c-0.3,0.3-2.5,0.8-2.5,0.8c-4.1,1.1-21,3.6-30.1,4.1c-0.1,0-2.5,0.4-7.6-0.4c0,0-33.9-5.6-33.9-5.6l-1.9,2.6
		c-0.1,0,35.1,5.7,35.1,5.7c3.2,0.5,5.7,0.6,7.5,0.6l1,0c1.3-0.1,2-0.2,2-0.2c9.4-1,21.4-2.5,29.2-4.3c0,0,0.9-0.2,1.6-0.2
		c0.3,0,0.6,0.2,0.6,0.2c0.1,0.1,0.3,0.4,0.4,1c1.4,5,1.7,12.5,1.7,12.8c0,0,0,1.6-0.2,2.2c-0.3,0.3-1.5,0.5-1.5,0.5
		c-12.5,3.2-27.2,0.9-32.9-11.2c-1.2,0.1-3.1,0.1-3.1,0.1c0.1,0.4,0.6,1.3,0.6,1.3c3.7,8.1,10.2,11.3,15.8,12.8
		c6.1,1.6,13.4,1.5,20.2-0.2c1.1-0.4,1.1-0.5,1.1-0.5c1,0.5,2,0.1,2,0.1C134.7,126,134.9,125.5,135,124.9z"/>
	<path class="st1" d="M55.6,97.4L55.6,97.4L55.6,97.4l5.8,3.6l0.7,0.4l0,0l1.9,1.2c1.4,0.9,3,0.2,3.9-1c0.8-1,1.1-2.5-0.5-4
		c0,0-0.3-0.4-1.6-1.1c-1.2-0.7-5.6-3.3-7.6-4.6c0,0-0.8-0.5-1.1-1.1c-0.3,0.5-0.9,1.4-2.1,3.2c-0.5,0.8-0.7,1.4-0.6,2
		C54.6,97,55.6,97.4,55.6,97.4z M59.1,96.7c0.2-0.5,0.6-1.4,2.2-1.5l0,0h0c2-0.1,2.7,1.5,2.9,2.1c1.3-0.2,2.3,0.7,2.4,0.8
		c1.6,1.6,0.5,3,0.5,3.1c0,0-1.4,1.9-3.8,0.4c-0.3-0.2-0.6-0.5-0.8-0.8l0,0c-0.2-0.4-0.3-0.6-0.3-0.6c-2.1,0.3-2.9-1.2-2.9-1.2
		C58.7,97.8,59.1,96.7,59.1,96.7z"/>
	<path class="st1" d="M68.8,94.9c-1.2-0.9-4-2.8-6.1-4.1l-0.5,0.5c0,0,4.7,3.1,5.9,4c1.4,0.9,1.9,2.1,1.7,3.3
		C69.8,98.5,71,96.6,68.8,94.9z"/>
	<path class="st1" d="M58.5,91.4c2,1.3,8.7,5.2,8.7,5.2s1.8,1.1,1.9,2.6c0.5-1.5-0.4-2.7-1.3-3.4l-6.2-4.1c-1.2,0.3-3.6-1-3.5-2.6
		C57.4,89.6,57.3,90.6,58.5,91.4z"/>
	<path class="st1" d="M63.5,99c0.3,1.4,1.2,2,2.7,1.8l0.3-0.1c0.9-1.3-0.5-3.2-2.3-3.1C64.2,98.3,63.8,98.8,63.5,99z"/>
	<path class="st1" d="M62.5,99.5c0.4,2,2.6,2.5,3.7,1.8c-0.9,0.1-2.7,0.1-3-2c-1.3,0.5-3.7,0.1-3.5-2.5
		C58.9,98.6,60.8,100,62.5,99.5z"/>
	<path class="st1" d="M134.5,89c-1.7,0.5-4.1,1-6,1.3c0.7,1.3,0.8,1.8,1,2.3c-0.1,0.1,0.9-0.1,2-0.3c1.7-0.3,3.4-0.7,4.3-1l0.3-0.1
		c1-0.2,1.1-1.1,1-1.3c-0.1-0.6-0.4-1.1-1.2-1.2C136,88.7,135,88.8,134.5,89z"/>
	<path class="st1" d="M138.3,100.9c-1.4,0.3-5.5,1.1-5.5,1.1l0.3,0.7c1.1-0.1,5.9-1.3,5.9-1.3c0.9,0,0.9,0.6,0.9,0.6
		c-1.8,0.7-6.5,1.7-6.5,1.7c0.2,0.9,0.7,2.6,0.7,2.6c5.6-1,6.8-1.6,6.8-1.6c1.6-0.7,1-2.6,1-2.6C141.2,99.9,138.3,100.9,138.3,100.9
		z"/>
	<path class="st1" d="M136.9,91.9c0,0,1.4,3.5,2.4,7.9c4.1,0,4.3,4.8,1.9,5.6c0,0,1.5,7.8,2,12.1c0.1,0.8,0,1.4,0,1.4
		c1.7,0.3,2.7,1.5,2.7,2.2c0.8-4.9-2-19.1-5.7-29.5c-1-3.8-3.2-3.3-3.2-3.3C138.1,88.6,139.1,90.7,136.9,91.9z"/>
	<path class="st1" d="M123.7,90.1c0,0,0.1-0.7,0.8-0.8c0,0-3.4,0.4-8-0.3l0.9,2.1C117.5,91,121.8,90.6,123.7,90.1z"/>
	<path class="st1" d="M52,105.2c0,0,3.3-4.9,4.3-6.3c0,0-2.2-1.3-2.5-1.9l-4.4,6.7c-0.2,0.3-0.3,0.6-0.1,1c0.2,0.5,0.9,1,1.6,1
		C51.2,105.7,51.7,105.6,52,105.2z"/>
	<path class="st1" d="M77.1,65.4c0.2,0.4,0.8,1.7,0.8,1.7c1.1-0.8,2.2-1.5,4.2-2.2c6.3-2.6,13.9-4.1,20.6-5.4l0.5-0.1
		c1.1-0.2,1.4-0.8,1.3-1.4c-0.1-0.6-0.8-1.3-1.7-1.1c-8.3,1.3-18,3.8-22.7,5.8c-1.6,0.7-2.8,1.3-3.7,1.9
		C76.7,64.8,76.8,64.8,77.1,65.4z"/>
	<path class="st1" d="M61.5,90.7l3.4-5.4c0,0-1.3-1.2-2.2-2.4c-2.8,4.5-3.5,5.7-3.6,5.8l0,0l0,0c-0.4,0.5,0.3,1.2,0.4,1.3
		C60.1,90.7,61,91.1,61.5,90.7z"/>
	<path class="st1" d="M111.1,58.9c1.3,0.1,3.9,0.4,4.9,0.6c1.1,0,1.3-0.7,1.3-1c0.1-0.6-0.3-1.3-0.8-1.4l0,0l0,0
		c-0.8-0.3-4.5-0.7-6-0.8C110.5,56.3,111.1,57.8,111.1,58.9z"/>
	<path class="st1" d="M118.4,56.3l-5.6-10.1l-2.2,1l3.9,8.8L115,56c0.3,0.1,0.6,0.1,1.9,0.4c1.7,0.5,1.9,4.2-1.2,3.9
		c-0.5-0.1-1-0.1-1.4-0.2c0,0,0,0,0,0c-0.5-0.1-1.2-0.2-2-0.3l-0.2,0c0.8,3.1,0.6,7.3-3.7,8.3c2.2-1,0.3-1.6,0.2-1.7
		c-4.6-1-12.1,0.4-13-0.2c4.9-0.5,5.2-2.9,4.8-5.4c-0.2,0.1-0.5,0.1-0.7,0.2c0.5,2.6-0.6,3.6-2.1,4.2C95.4,66,93.8,66,93.7,66
		l-1.5-0.1c0.6-0.2,1.9-0.3,3.4-0.6c2.3-0.5,3.7-1.5,3.5-4.2c-0.3,0.1-0.6,0.1-0.9,0.2c0,0.8-0.1,1.4-0.3,1.9
		c-0.5,0.9-2.1,1.2-3,1.3c0,0-1.3,0.2-1.3,0.2c-5,0.6-7,1.6-10.2,3.3c0,0-0.4,0.2-0.6,0.4c-0.9,0.6-2.2,1.4-3.5,2.7
		c0.1,0.3,0.3,0.6,0.4,1c0.6-0.6,1.2-1.1,1.9-1.7c0,0,1.4-1.2,3.2-2c-2.6,1.6-4.1,3.3-4.9,4.1c2,4.5,4.7,10.5,7.4,16.4
		c-0.6-4.6,8.2-8,11.4-0.5c0.6,1.4,1.2,3.1,1.6,4.8c0.6-0.1,1.3-0.1,1.9-0.2c-0.2-0.9-0.4-1.7-0.7-2.6c-0.5-1.9-0.8-4.7-0.8-7.5
		c0-0.1,0-0.3,0-0.4c1.3,1.5,6.1,6.7,11.8,8.3l-1.4-3.5c0,0-5.7-2.4-10-9c0.1-0.3,0.1-0.6,0.1-0.7c0.5-2.4,1.3-4.7,2.7-6.4
		c0.1-0.1,0.2-0.2,0.3-0.3c0.1-0.1,0.2-0.3,0.5-0.5l9,21.1c0,0,1.5-0.1,2.9-0.3c0,0-7.1-16.9-9.3-22c0.1,0,0.3,0,0.5,0
		c0.1,0,0.1,0,0.2,0v0c0.1,0,0.3,0,0.3,0c2.2-0.4,3.3-1.3,4.1-2.8c0.7-1.3,0.8-3,0.7-4.4c0.1-0.1,0.2-0.3,0.4-0.4
		c0.2-0.2,0.4-0.3,0.7-0.5C116.7,62.2,121,60.5,118.4,56.3z M99.7,85.3c-2.5-2.8-1.3-13.8,3.1-14.3C99.8,73.2,98.8,81.1,99.7,85.3z"
		/>
	<path class="st1" d="M62.4,98.2c-0.2,0-0.5,0-0.7-0.1c0,0.3,0,0.5,0.1,0.8c1.3,0.2,1.9-0.6,2-1.2l-0.1,0c0-0.8-0.6-1.6-1.5-1.9
		c-0.3,0.5-0.4,1.1-0.4,1.8c0.2,0.1,0.5,0.2,0.7,0.2C62.4,97.8,62.4,98,62.4,98.2z"/>
	<path class="st1" d="M60.9,98.6c0.1,0,0.1,0.1,0.2,0.1C61,98.5,61,98.2,61,97.8c-0.2-0.1-0.3-0.2-0.4-0.3l0-0.4
		c0.1,0.1,0.2,0.1,0.3,0.2c0-0.6,0.1-1.2,0.4-1.6c-0.6,0-0.9,0.1-1.3,0.5C60,96.1,59.6,97.9,60.9,98.6z"/>
	<path class="st3" d="M62.2,113.8c0.3,0.7,0.9,1.1,1.7,1.1c0.5,0,1-0.2,1.4-0.6c1-0.4,1.8-1.5,1.8-2.7c0-1.6-1.3-2.9-2.9-2.9
		c-1.6,0-2.9,1.3-2.9,2.9C61.2,112.5,61.6,113.3,62.2,113.8z"/>
	<path class="st3" d="M41.3,22.9c8.1-1.4,15.5-0.9,22.3,0.8C56.8,22,49.3,21.5,41.3,22.9C30,26.5,19.8,33.4,12.8,43.2
		C19.8,33.4,30,26.5,41.3,22.9z"/>
	<path class="st3" d="M26.5,117.9c3.2-0.5,5.9,0.2,9.8,3.1c0.2,0.2,0.5,0.3,0.7,0.5c-0.2-0.2-0.5-0.3-0.7-0.5
		C32.4,118.1,29.7,117.4,26.5,117.9z"/>
	<path class="st3" d="M94.7,49.8c0.1,0.5,0.3,1,0.4,1.3C95,50.8,94.9,50.4,94.7,49.8z"/>
	<path class="st3" d="M95.6,47.2c-0.1,0-0.1,0.1-0.2,0.1C95.4,47.2,95.5,47.2,95.6,47.2c-3.1-5.3-7.9-10.7-14-15
		C87.7,36.5,92.4,41.9,95.6,47.2z"/>
	<path class="st3" d="M12.6,43.5c0,0,0.1-0.1,0.1-0.1C12.6,43.4,12.6,43.5,12.6,43.5z"/>
	<path class="st3" d="M63.7,23.7c0.1,0,0.2,0,0.2,0.1C63.9,23.8,63.8,23.7,63.7,23.7z"/>
	<path class="st3" d="M94.7,48.4c0-0.2,0.1-0.5,0.3-0.7c0-0.1,0.1-0.1,0.1-0.1c0,0-0.1,0.1-0.1,0.1C94.8,47.9,94.7,48.1,94.7,48.4z"
		/>
	<path class="st3" d="M106.1,50.1c0-1.9-1.1-3.2-2-3.3c0,0-0.3-0.1-0.6,0.1c0,0,0,0-0.1,0c0,0,0,0,0,0c0,0-0.1,0.1-0.1,0.1
		c0,0,0,0,0,0c-0.1,0.1-0.2,0.4-0.2,0.8c0,0.2,0,0.4,0.1,0.7c0,0,0,0,0,0c0,0,0,0.1,0.1,0.2c0.1,0.2,0.2,0.6,0.5,1
		c0,0.1,0.1,0.1,0.1,0.2c0.2,0.2,0.4,0.5,0.7,0.8c0,0-0.1,0.6,0.1,1.4l0,0.1c0.2,0.6,0.4,1.1,0.8,1.6c1,1.2,2.1,0.4,1.8-1
		c-0.3-1.3-0.7-1.8-1.3-2.4C106.1,50.2,106.1,50.1,106.1,50.1z"/>
	<path class="st3" d="M23.1,119.5c1.2-0.2,2.9-0.5,3.9-0.5c1.3,0.1,3.3,0.3,5.1,1.5l-0.9,0.5c-4.4,2.1-8.1,2.7-10.1,2.9
		c-2,0.2-1.7-1-0.3-1.7c0.7-0.4,1.4-1.1,1.6-2.4c-0.2,0.1-0.2,0.1-0.6,0.1c0,0,0,0,0,0c-0.5,3.2-6.7,2.9-6.1-1.5
		c0,0-0.9-1.9-1.4-2.9c0,0.1-0.1-0.7-0.1-0.7c0,0,1.5,2.5,2.2,3.3c-0.8,3,3.5,4.2,4.7,2c-3.9,0.7-4-1.3-3.9-1.9
		c0-0.1-0.1-0.2-0.1-0.3c-0.7-0.7-2.9-3.6-5.3-8.1c-0.3,2.7,2.7,8.8,2.9,9.4c0.3,0.6,0.3,0.6,0.3,0.6c-0.9,2.5,1.7,5.8,6.4,5.1
		c4.6-0.4,9.8-2.4,12-4c0.2-0.1,0.4-0.3,0.5-0.4c-2.5-1.6-5.6-2.6-10.6-1C23.3,119.4,23.2,119.4,23.1,119.5z"/>
	<path class="st3" d="M37.7,112.9c-0.7,0.5-1,1.5-0.9,2.6c-0.3,0.6-0.1,1.6,0.5,2.3c0.7,0.8,1.7,1,2.4,0.6c0.6,0,1.2-0.1,1.6-0.4
		c1-0.9,1.1-2.6,0.1-3.9C40.5,112.6,38.8,112.2,37.7,112.9z"/>
	<path class="st3" d="M43.8,91.1c-1.6,0-3,0.6-4.1,1.7c-2.4,2.4-2.2,6.6,0.4,9.3c1.3,1.4,3.1,2.2,4.9,2.2c0.6,0,1.3-0.1,1.9-0.3
		l3.9-5.8c0-1.7-0.7-3.5-2.1-4.9C47.3,91.9,45.6,91.1,43.8,91.1z"/>
	<path class="st3" d="M35.6,108.2c5.5,7,15.1,7.1,20,1.9C53.5,111.1,44.9,116.8,35.6,108.2z"/>
	<path class="st0" d="M95.2,51.1c-0.1-0.3-0.3-0.7-0.4-1.3c-0.1-0.5-0.1-1,0-1.5c0-0.2,0.1-0.5,0.3-0.7c0-0.1,0.1-0.1,0.1-0.1
		c0.1-0.1,0.2-0.2,0.3-0.3c0.1,0,0.1-0.1,0.2-0.1c-3.1-5.3-7.9-10.7-14-15c-5-3.6-11-6.6-17.6-8.3c-0.1,0-0.2,0-0.2-0.1
		c0,0-0.1,0-0.1,0c-6.7-1.7-14.2-2.2-22.3-0.8C30,26.5,19.8,33.4,12.8,43.2c-0.1,0.1-0.1,0.2-0.2,0.2c0,0-0.1,0.1-0.1,0.1
		C4.2,55.4,0.5,71.3,5.3,90.4c3.6,13.3,7.9,20.3,12.5,26.9c0,0-0.2,3.2,5.3,1.5c1.2-0.4,2.4-0.7,3.4-0.8c3.2-0.5,5.9,0.2,9.8,3.1
		c0.2,0.2,0.5,0.3,0.7,0.5c9.2,6.4,24.3,9.2,34.1,4.1c2.5-1.3,4.7-3.1,6.3-5.6c0,0,0.1-0.1,0.1-0.1c0.7-1.1,1.2-2,1.6-3.1
		c0.7-2,0.9-4,0.8-5.9c-0.6-0.1-1.3-0.2-1.9-0.3c-0.4,8.2-8.6,16.2-23.2,15.3c-6.1-0.2-12.6-3.2-16.5-5.3c-1.8-1.2-6.8-4-9.2-4.6
		c2.1,0.1,7.3,2.9,9.5,4.1c4.5,2.3,10.8,4.6,16.2,4.8c9.8,0.9,20.8-4.1,22-14.5c-9.8-1.6-22.8-3.8-24.7-4.1
		c-0.4,0.3-0.9,0.4-1.4,0.4c-1-0.1-1.9-0.7-2.3-1.5c-0.3-0.6-0.2-1.2,0.2-1.8c0,0,4.6-6.9,4.6-6.9l0.2-0.4c-0.2-1.1,0.3-2,0.5-2.2
		c0.4-0.4,2.5-3.8,3-4.8c0.1-0.1,0.6-1,1.7-1.1c0.5-0.8,1.7-2.7,3.7-5.9c-0.2-0.9,0.3-1.8,0.9-2.3c0.2-0.2,0.4-0.3,0.6-0.3
		c2.5-4,5.3-8.4,6-9.6c0.9-1.2,1.6-2,2.4-2.9c0.3-0.3,0.9-0.8,1.2-1.1c0.4-0.5,0.9-0.9,1.5-1.1c0,0,0-0.1,0.1-0.2
		c2-1.6,4.8-2.7,4.8-2.7c3.8-1.6,10.5-3.4,17.3-4.8c-0.5-1.4-2-5.8-2-5.8C95.2,51.3,95.2,51.2,95.2,51.1z M64.1,108.8
		c1.6,0,2.9,1.3,2.9,2.9c0,1.2-0.7,2.2-1.8,2.7c-0.3,0.4-0.8,0.6-1.4,0.6c-0.8,0-1.4-0.5-1.7-1.1c-0.6-0.5-1-1.3-1-2.2
		C61.2,110.1,62.5,108.8,64.1,108.8z M41.3,117.9c-0.4,0.3-1,0.5-1.6,0.4c-0.7,0.4-1.7,0.2-2.4-0.6c-0.7-0.7-0.9-1.6-0.5-2.3
		c-0.1-1,0.2-2,0.9-2.6c1.1-0.8,2.8-0.3,3.7,1.1C42.4,115.4,42.3,117.1,41.3,117.9z M55.6,110.1c-4.9,5.2-14.5,5.1-20-1.9
		C44.9,116.8,53.5,111.1,55.6,110.1z M46.8,104c-0.6,0.2-1.2,0.3-1.9,0.3c-1.8,0-3.6-0.8-4.9-2.2c-2.6-2.7-2.8-6.9-0.4-9.3
		c1.1-1.1,2.5-1.7,4.1-1.7c1.8,0,3.6,0.8,4.9,2.2c1.3,1.4,2,3.2,2.1,4.9L46.8,104z"/>
	<path class="st1" d="M110,47.5l-0.8,0.3c-0.1-0.3-0.4-0.5-0.8-0.5c-0.1,0-0.2,0-0.4-0.1C77.4-7.5-17,22.8,5.7,95.3
		c1.6,5.1,3.6,9.5,5.4,13.1c-0.2,0.7-0.4,1.9,0,3.5c0.6,2.3,1.1,3.7,3,7.9c-0.8,2.8,1.8,6.9,8.2,5.7c7.5-1.2,11.4-3.9,12.3-4.6
		c0.3,0.2,0.5,0.4,0.8,0.5c13.3,10.4,35.1,11.2,43.1-1.1c3.2,0.7,7.2,0.1,7.2,0.1c4.2-0.3,7.5-1.4,10.1-3.1c-0.3-0.5-0.6-1-0.9-1.6
		c-3.4,2.3-8.2,3.5-15,2.9l-0.4-0.1c1.1-2.1,1.8-4.6,2-7.5c-0.5-0.1-1-0.2-1.6-0.3c0.1,1.9-0.1,3.9-0.8,5.9
		c-0.4,1.1-0.8,2.1-1.6,3.1c0,0-0.1,0.1-0.1,0.1c-1.6,2.4-3.8,4.3-6.3,5.6c-9.8,5.1-24.9,2.3-34.1-4.1c-0.2-0.2-0.5-0.3-0.7-0.5
		c-3.9-2.9-6.6-3.6-9.8-3.1c-1.1,0.2-2.2,0.5-3.4,0.8c-5.5,1.7-5.3-1.5-5.3-1.5c-4.6-6.6-8.9-13.6-12.5-26.9
		c-4.8-19-1.1-35,7.3-46.8c0,0,0.1-0.1,0.1-0.1c0.1-0.1,0.1-0.2,0.2-0.2c7-9.7,17.2-16.7,28.5-20.3c8.1-1.4,15.5-0.9,22.3,0.8
		c0,0,0.1,0,0.1,0c0.1,0,0.2,0,0.2,0.1c6.7,1.7,12.6,4.7,17.6,8.3c6.1,4.4,10.9,9.8,14,15c-0.1,0-0.1,0.1-0.2,0.1
		c-0.1,0.1-0.2,0.2-0.3,0.3c0,0-0.1,0.1-0.1,0.1c-0.1,0.2-0.2,0.4-0.3,0.7c-0.1,0.5-0.1,1,0,1.5c0.1,0.5,0.3,1,0.4,1.3
		c0.1,0.1,0.1,0.2,0.1,0.2c0,0,1.5,4.4,2,5.8c0,0,0,0,0,0c0.3-0.1,0.6-0.1,0.9-0.2l-2.3-6.3C95,48.6,96,47.8,96,47.8
		c-0.3,0.8,0,1.7,0.1,2.2c0.3,0.9,1.3,3.6,2.1,5.7c0.2,0.4,0.3,0.8,0.4,1.2c0.2-0.1,0.5-0.1,0.7-0.1c-0.7-2.1-1.7-4.6-2-5.4
		c-0.3-0.7-0.4-0.9-0.7-2c-0.4-1.5,0.2-1.5,0.8-1.6c0.4,0,1.4,0,1.7,0c0.7-0.4,2-1,2.9-1.5c-10.1-17-30.2-28.4-56.7-24.5
		C66.3,16.6,90,22.6,104.3,43c0.8,1.3,1.4,2,2.5,4.2c-0.2,0-0.3,0-0.5,0c-0.8-1.1-1.6-1.5-2.6-1.5c-0.1,0-1.9,0-1.7,1.9
		c0.1,0.6,0.3,1.3,0.5,1.6l0,0l1.4,3l0.4,0.8l1.4,2.8c0,0,1,2,1.1,3.1l3.7,0.1c0,0,0.1-1.1-0.7-3.1c-0.6-1.4-2.3-6.7-2.8-7.8
		c0,0,0,0,0-0.1c0.2,0,0.9,0,1.3,0.1c0.7,1.8,1.8,5,2.6,7.5c0,0,0.9,0,0.9,0c0.3,0,1.6,0.1,2,0.2L110,47.5z M33.9,120.4
		c-0.1,0.1-0.3,0.2-0.5,0.4c-2.2,1.6-7.4,3.5-12,4c-4.7,0.8-7.3-2.5-6.4-5.1c0,0,0,0-0.3-0.6c-0.3-0.6-3.3-6.7-2.9-9.4
		c2.5,4.6,4.7,7.5,5.3,8.1c0,0.1,0,0.2,0.1,0.3c-0.1,0.7,0.1,2.6,3.9,1.9c-1.2,2.3-5.5,1-4.7-2c-0.6-0.8-2.2-3.3-2.2-3.3
		c-0.1,0,0.1,0.7,0.1,0.7c0.5,1.1,1.4,2.9,1.4,2.9c-0.7,4.4,5.6,4.7,6.1,1.5c0,0,0,0,0,0c0.3-0.1,0.3,0,0.6-0.1
		c-0.3,1.3-0.9,2-1.6,2.4c-1.4,0.7-1.7,1.9,0.3,1.7c2.1-0.1,5.8-0.7,10.1-2.9l0.9-0.5c-1.8-1.2-3.8-1.4-5.1-1.5
		c-1-0.1-2.7,0.2-3.9,0.5c0.1,0,0.1,0,0.2-0.1C28.4,117.7,31.4,118.8,33.9,120.4z M107.4,52.7c0.3,1.5-0.7,2.2-1.8,1
		c-0.4-0.5-0.6-1-0.8-1.6l0-0.1c-0.2-0.8-0.1-1.4-0.1-1.4c-0.3-0.3-0.5-0.5-0.7-0.8c-0.1-0.1-0.1-0.1-0.1-0.2
		c-0.3-0.4-0.4-0.8-0.5-1c0-0.1,0-0.2-0.1-0.2c0,0,0,0,0,0c0-0.3-0.1-0.5-0.1-0.7c0-0.4,0.1-0.6,0.2-0.8c0,0,0,0,0,0
		c0-0.1,0.1-0.1,0.1-0.1c0,0,0,0,0,0c0,0,0,0,0.1,0c0.3-0.2,0.6-0.1,0.6-0.1c0.9,0.1,2,1.4,2,3.3c0,0.1,0,0.2,0,0.2
		C106.7,50.9,107.1,51.4,107.4,52.7z"/>
	<path class="st2" d="M107.4,52.7c-0.3-1.3-0.7-1.8-1.3-2.4c0-0.1,0-0.2,0-0.2c0-1.9-1.1-3.2-2-3.3c0,0-0.3-0.1-0.6,0.1
		c0,0,0,0-0.1,0c0,0,0,0,0,0c0,0-0.1,0.1-0.1,0.1c0,0,0,0,0,0c-0.1,0.1-0.2,0.4-0.2,0.8c0,0.2,0,0.4,0.1,0.7c0,0,0,0,0,0
		c0,0,0,0.1,0.1,0.2c0.1,0.2,0.2,0.6,0.5,1c0,0.1,0.1,0.1,0.1,0.2c0.2,0.2,0.4,0.5,0.7,0.8c0,0-0.1,0.6,0.1,1.4l0,0.1
		c0.2,0.6,0.4,1.1,0.8,1.6C106.7,54.9,107.7,54.1,107.4,52.7z M104.9,50.1c-0.5-0.3-1.4-1.5-1.2-2.5
		C104.9,47.7,105.3,49.5,104.9,50.1z M106.2,53.5c-0.6-0.6-1-1.3-1-2.3C106.2,51.4,106.8,52.7,106.2,53.5z"/>
</g>
</svg>
