<svg width="16" height="13" viewBox="0 0 16 13" fill="none" xmlns="http://www.w3.org/2000/svg">
<path d="M4.87126 10.1448C4.87454 10.7724 4.87766 11.369 4.88077 11.9632C4.88798 12.031 4.87843 12.0996 4.85297 12.1628C4.82752 12.226 4.78695 12.2819 4.73488 12.3254C4.68281 12.369 4.62085 12.3989 4.55453 12.4125C4.48821 12.4261 4.41958 12.423 4.35476 12.4033C4.24661 12.3594 4.14956 12.2917 4.07069 12.2052C3.41632 11.5549 2.76428 10.8999 2.1099 10.2472L0.213132 8.35554C0.160246 8.31646 0.117177 8.26544 0.0873768 8.20657C0.0575769 8.1477 0.0418748 8.08261 0.0415289 8.01652C0.041183 7.95043 0.0562029 7.88518 0.0853849 7.826C0.114567 7.76682 0.1571 7.71535 0.209574 7.67572C1.48738 6.36959 2.76596 5.06266 4.04533 3.75493C4.10677 3.67343 4.19267 3.61409 4.29026 3.58574C4.38785 3.5574 4.49191 3.56155 4.58698 3.59759C4.67603 3.64041 4.74896 3.71109 4.7949 3.7991C4.84085 3.8871 4.85733 3.98771 4.8419 4.08592C4.84455 4.59222 4.84721 5.10089 4.84988 5.60956L4.85105 5.833L11.087 5.80036C11.1554 5.8 11.2261 5.79963 11.2945 5.79927C11.35 5.79887 11.4051 5.80996 11.4562 5.83185C11.5073 5.85374 11.5534 5.88598 11.5916 5.92656C11.6298 5.96714 11.6594 6.0152 11.6785 6.06776C11.6976 6.12032 11.7057 6.17627 11.7024 6.23214C11.7045 6.62434 11.7066 7.01891 11.7084 7.36595L14.5872 4.47467L11.6781 1.57327L11.6835 2.60725C11.6858 3.04224 11.5473 3.18559 11.1087 3.18788C10.0615 3.19336 9.01666 3.19883 7.96948 3.20431C7.85077 3.20576 7.73315 3.18123 7.62475 3.13243C7.54719 3.09391 7.48567 3.02894 7.45114 2.94904C7.41661 2.86915 7.4113 2.77951 7.43614 2.69604C7.44742 2.61364 7.48519 2.53724 7.54367 2.47854C7.60215 2.41985 7.67811 2.38209 7.75992 2.37107C7.83795 2.35934 7.91682 2.35416 7.9957 2.35557L10.8259 2.34076L10.8247 2.11495C10.822 1.59439 10.8193 1.07383 10.8166 0.553276C10.7943 0.453263 10.8078 0.348554 10.8547 0.257612C10.9016 0.166671 10.9789 0.0953382 11.0729 0.0561946C11.1668 0.017051 11.2715 0.0126102 11.3684 0.0436552C11.4654 0.0747002 11.5483 0.139237 11.6026 0.225885C12.9066 1.52643 14.2107 2.82698 15.5147 4.12752C15.5664 4.16795 15.6083 4.21969 15.6372 4.27884C15.6662 4.33799 15.6814 4.40299 15.6817 4.46894C15.6821 4.53489 15.6676 4.60005 15.6392 4.6595C15.6109 4.71894 15.5695 4.77112 15.5183 4.81209C14.2264 6.12622 12.936 7.43955 11.6472 8.75208C11.5892 8.82686 11.5083 8.88031 11.4171 8.90417C11.3259 8.92804 11.2295 8.921 11.1426 8.88415C11.0558 8.84729 10.9834 8.78267 10.9366 8.70024C10.8898 8.61782 10.8712 8.52217 10.8837 8.42805C10.881 7.90511 10.8783 7.38377 10.8755 6.864L10.8745 6.6572L4.61496 6.68997C4.15741 6.69236 4.01278 6.54812 4.01039 6.09174L4.00519 5.09817L1.1289 8.02747C2.07728 8.97332 3.04701 9.94045 4.02384 10.9147C4.02578 10.8759 4.02557 10.837 4.02323 10.7982C4.02144 10.4559 4.01965 10.1136 4.01784 9.76898C4.01074 9.70614 4.01746 9.64251 4.03754 9.58259C4.05762 9.52268 4.09056 9.46797 4.13401 9.42234C4.17746 9.37672 4.23035 9.34132 4.28893 9.31865C4.34751 9.29598 4.41032 9.2866 4.47291 9.29119C5.58848 9.28535 6.70406 9.27951 7.81964 9.27367C7.87885 9.26794 7.9386 9.27481 7.99501 9.29385C8.05142 9.31288 8.10324 9.34365 8.1471 9.38416C8.19095 9.42467 8.22587 9.47402 8.24959 9.529C8.27331 9.58398 8.2853 9.64337 8.28479 9.70332C8.28427 9.76328 8.27126 9.82245 8.24659 9.877C8.22193 9.93156 8.18616 9.98028 8.14161 10.02C8.09706 10.0597 8.04473 10.0896 7.988 10.1076C7.93126 10.1257 7.87141 10.1315 7.8123 10.1247C6.91842 10.1294 6.02219 10.1341 5.12831 10.1387L4.87126 10.1448Z" fill="#A3A3A3"/>
</svg>

