<?xml version="1.0" encoding="utf-8"?>
<!-- Generator: Adobe Illustrator 24.0.1, SVG Export Plug-In . SVG Version: 6.00 Build 0)  -->
<svg version="1.1" id="Layer_1" xmlns="http://www.w3.org/2000/svg" xmlns:xlink="http://www.w3.org/1999/xlink" x="0px" y="0px"
	 viewBox="0 0 150 150" style="enable-background:new 0 0 150 150;" xml:space="preserve">
<style type="text/css">
	.st0{fill:#002244;}
	.st1{fill:#FFFFFF;}
</style>
<g>
	<polygon class="st0" points="74,4 56,57.6 0,57.6 46,90.4 28.3,144 74,111.4 119.6,144 102,90.4 147.9,57.6 91.9,57.6 	"/>
	<polygon class="st1" points="74,18.8 59.6,62.1 14.2,62.1 51.4,88.8 37.1,132.2 74.1,105.7 110.9,132.2 96.5,88.8 133.8,62.1 
		88.4,62.1 	"/>
	<polygon class="st0" points="74,31.5 62.6,65.8 26.8,65.8 56.2,86.8 44.9,121.1 74.1,100.2 103.1,121.1 91.7,86.8 121.1,65.8 
		85.3,65.8 	"/>
</g>
</svg>
