<?xml version="1.0" encoding="utf-8"?>
<!-- Generator: Adobe Illustrator 24.0.1, SVG Export Plug-In . SVG Version: 6.00 Build 0)  -->
<svg version="1.1" id="Layer_1" xmlns="http://www.w3.org/2000/svg" xmlns:xlink="http://www.w3.org/1999/xlink" x="0px" y="0px"
	 viewBox="0 0 150 150" style="enable-background:new 0 0 150 150;" xml:space="preserve">
<style type="text/css">
	.st0{fill:#A71930;}
	.st1{fill:#0B2265;}
</style>
<g>
	<path class="st0" d="M144,104l-0.1-83h-23v48.3c0,0.6,0,1.2,0,1.7c0,0.2,0,0.4,0,0.7c-0.2,1.8-1.3,3.3-2.8,4.1
		c-0.9,0.5-1.9,0.8-3,0.8c-3.2,0-5.9-2.4-5.8-5.4l0-50.2H77.5v18.8h5.9c1.6,0,2.9,1.3,2.9,2.9v10.4l0,0v13.7v0v12.6
		c0.4,6.1,4,11.6,8.5,14.2c4.6,3.6,15.8,5.3,21.8,3.2c0,0,2.8-0.9,4.3-1.9v1.5v3.2c0,1.1-0.1,1.8-0.4,2.7c-0.8,1.7-2.4,2.5-5.1,2.6
		l-98.3,0v21.9h106.5c3.2-0.2,6.3-0.5,8.9-1.3c3.5-1.1,11.5-4.8,11.5-16.7C144,108.5,144,104.2,144,104z"/>
	<path class="st1" d="M96.3,90.9l0.2,0.1l0.2,0.1c3.8,3,13.8,4.4,18.8,2.7l0.1,0c0.9-0.3,2.7-1,3.5-1.5L124,89v10.6
		c0,1.3-0.1,2.4-0.6,3.7l0,0.1l-0.1,0.1c-0.9,1.9-3,4.3-8,4.4c0,0-89.2,0-95.1,0c0,3.8,0,11.7,0,15.5c6,0,103,0,103.2,0
		c3-0.2,5.8-0.5,8-1.1c3.5-1.1,9.3-4.3,9.3-13.7c0,0-0.1-78.6-0.1-84.5c-4,0-12.7,0-16.7,0c0,5.5,0,45.1,0,45.1l0,1.9L124,72l0,0.1
		c-0.3,2.7-2,5.1-4.4,6.5c-1.4,0.8-3,1.2-4.6,1.2c-2.5,0-4.8-1-6.5-2.7c-1.6-1.6-2.5-3.7-2.5-5.9c0,0,0-41.5,0-47
		c-4.6,0-20.9,0-25.4,0c0,3.5,0,9,0,12.5c1.3,0,2.7,0,2.7,0c3.3,0,6,2.7,6,6v10.4v0v13.7v0c0,0.2,0,12.2,0,12.5
		C89.7,84.1,92.4,88.7,96.3,90.9z"/>
	<path class="st0" d="M76.3,78c-1.6,0-2.9-1.3-2.9-2.9v-0.4c0,0,0-0.1,0-0.1c0-0.7,0-1.3,0-2V58.9c0-1.7,0-2.7,0-2.7l0-4.3V35.6
		c0-0.5-0.1-1.2-0.3-2.1c-0.3-1.5-1-3.4-2.3-5.3c-2.7-4-6.2-6.1-10.8-7.3c-7.3-1.9-15.2-0.4-20.6,3.7V21h-33l0,18.9h7.7
		c1.6,0,2.9,1.3,2.9,2.9v53.5h22.5v-50l0-0.5h0c0-3,2.5-5.4,5.7-5.4c3.1,0,5.6,2.4,5.7,5.3v40.8c0,1.2,0.2,2.3,0.6,3.4
		c1.4,3.7,4.9,6.3,9.1,6.3h21.1V78l-0.4,0H76.3z"/>
	<path class="st1" d="M70.3,75.2c0,0,0-0.3,0-0.3c0-0.1,0-0.1,0-0.1l0-2.1V58.9c0,0,0-2.7,0-2.7l0-4.3c0,0,0-15.8,0-16.1
		c0-0.1-0.2-1.6-0.2-1.6c-0.3-1.5-0.9-2.9-1.8-4.2c-2.2-3.2-4.8-5-8.9-6c-6.4-1.6-13.2-0.4-17.9,3.2l-5.1,3.9c0,0,0-6.8,0-6.8
		c-4.6,0-22,0-26.6,0c0,3.5,0,9,0,12.5c2.2,0,4.5,0,4.5,0c3.3,0,6,2.7,6,6c0,0,0,44.7,0,50.3c3.9,0,12.2,0,16.1,0
		c0-5.6,0-46.8,0-46.8s0-0.5,0-0.5c0-4.7,4-8.6,8.8-8.6c4.8,0,8.7,3.8,8.8,8.5v40.8c0,0.8,0.1,1.5,0.4,2.3c0.9,2.6,3.4,4.3,6.1,4.3
		c0,0,13.3,0,17.9,0c0-3.4,0-8.3,0-11.7c-1.1,0-2.2,0-2.2,0C73,81.2,70.3,78.5,70.3,75.2z"/>
</g>
</svg>
