<svg width="20" height="20" viewBox="0 0 20 20" fill="none" xmlns="http://www.w3.org/2000/svg">
<path fill-rule="evenodd" clip-rule="evenodd" d="M14.0476 0.99593L13.3805 0.354376C12.923 -0.0856307 12.0975 -0.149541 11.7115 0.354376L10.3185 2.16111C10.2597 2.23731 10.2061 2.31843 10.1677 2.39955H14.2572C14.5384 1.98412 14.4336 1.36714 14.0476 0.99593ZM1.17065 7.55934H18.8294C19.476 7.55934 20 7.05051 20 6.43349V5.02497C20 4.40306 19.4709 3.89912 18.8294 3.89912L1.17065 3.89666C0.524 3.89666 9.31005e-06 4.40549 9.31005e-06 5.02251V6.43103C-0.00254645 7.0554 0.521422 7.55934 1.17065 7.55934ZM17.9859 9.0637V18.4954C17.9859 19.3262 17.2856 19.9997 16.4217 19.9997H10.7757V9.06345L17.9859 9.0637ZM9.21679 20H3.57075C2.70685 20 2.00654 19.3265 2.00654 18.4956V9.06396H9.21711L9.21679 20ZM5.9452 0.996306L6.61228 0.354753C7.06979 -0.0852538 7.89533 -0.149164 8.28131 0.354753L9.67428 2.16149C9.73307 2.23769 9.78675 2.31881 9.82509 2.39993H5.74326C5.45444 1.9845 5.55926 1.36752 5.9452 0.996306Z" fill="#FE5E1F"/>
</svg>

